#!OML:ASF I:\Actors\actors\Patient Classification 2\Patient 1\Session 1\actor1.ASF
:FULLY-SPECIFIED
:DEGREES
170
root -0.620655 18.6957 4.42415 0.571005 -3.03732 -4.12209
lowerback 18.2957 1.39513 -0.597119
upperback 8.37244 1.72373 0.691869
thorax -1.31061 0.819846 0.74095
lowerneck 2.97046 -2.66236 2.31038
upperneck 8.84725 -3.74152 3.17443
head 2.29709 -1.71113 0.571376
rclavicle -6.16232e-015 -1.31198e-014
rhumerus 7.58543 27.6155 -39.2979
rradius 134.412
rwrist -36.535
rhand -8.15154 -46.3285
rfingers 7.12502
rthumb 17.763 -75.5372
lclavicle -6.16232e-015 -1.31198e-014
lhumerus -42.668 -6.77838 84.9954
lradius 59.8969
lwrist 6.98791
lhand -12.4058 -27.7623
lfingers 7.12502
lthumb 13.6659 1.769
rfemur 0 0 0
rtibia 0
rfoot 0 0
rtoes 0
lfemur -11.2607 -0.232081 -9.60106
ltibia 27.0687
lfoot -18.7272 9.7211
ltoes -55.7528
171
root -0.621877 18.6935 4.41175 0.488341 -3.08951 -4.11232
lowerback 18.4163 1.34727 -0.575628
upperback 8.35905 1.6631 0.669852
thorax -1.38463 0.790612 0.714494
lowerneck 2.81308 -2.6565 2.1921
upperneck 8.742 -3.74328 3.25966
head 2.29454 -1.71461 0.616336
rclavicle 2.98177e-015 1.55052e-014
rhumerus 7.82972 27.2788 -39.1581
rradius 134.604
rwrist -36.3028
rhand -8.34817 -46.2402
rfingers 7.12502
rthumb 17.5738 -75.4659
lclavicle 2.98177e-015 1.55052e-014
lhumerus -42.5751 -6.88444 84.9328
lradius 59.9064
lwrist 6.81035
lhand -12.2075 -27.2706
lfingers 7.12502
lthumb 13.857 2.24782
rfemur 0 0 0
rtibia 0
rfoot 0 0
rtoes 0
lfemur -11.1944 -0.198438 -9.60923
ltibia 27.0663
lfoot -18.7245 9.71425
ltoes -55.7271
172
root -0.623171 18.6912 4.40107 0.393117 -3.12406 -4.09943
lowerback 18.5198 1.31518 -0.557134
upperback 8.3138 1.62422 0.683886
thorax -1.48547 0.771724 0.723609
lowerneck 2.81399 -2.68316 2.10114
upperneck 8.48232 -3.76608 3.20102
head 2.20916 -1.73551 0.61375
rclavicle -9.93923e-015 1.19271e-015
rhumerus 7.99996 26.9886 -38.9915
rradius 134.744
rwrist -35.967
rhand -8.59526 -46.0699
rfingers 7.12502
rthumb 17.336 -75.3168
lclavicle -9.93923e-015 1.19271e-015
lhumerus -42.5296 -6.92783 84.9347
lradius 59.915
lwrist 6.58079
lhand -12.1354 -26.7282
lfingers 7.12502
lthumb 13.9266 2.7854
rfemur 0 0 0
rtibia 0
rfoot 0 0
rtoes 0
lfemur -11.1173 -0.0946275 -9.61363
ltibia 27.0604
lfoot -18.7233 9.65736
ltoes -55.7554
173
root -0.625042 18.6903 4.39061 0.341795 -3.10947 -4.07055
lowerback 18.4896 1.26158 -0.611336
upperback 8.29134 1.54767 0.735031
thorax -1.4953 0.731631 0.823276
lowerneck 2.81547 -2.6861 2.07049
upperneck 8.11541 -3.74634 3.03
head 2.08456 -1.73784 0.566735
rclavicle -1.39149e-014 1.70955e-014
rhumerus 8.41649 26.6033 -38.7174
rradius 134.773
rwrist -35.6462
rhand -8.59812 -46.0211
rfingers 7.12502
rthumb 17.3333 -75.2682
lclavicle -1.39149e-014 1.70955e-014
lhumerus -42.3833 -6.73388 84.9329
lradius 59.5024
lwrist 6.73141
lhand -12.3214 -27.8087
lfingers 7.12502
lthumb 13.7473 1.71712
rfemur 0 0 0
rtibia 0
rfoot 0 0
rtoes 0
lfemur -11.1047 -0.0720469 -9.62878
ltibia 27.0605
lfoot -18.7287 9.57631
ltoes -55.6214
174
root -0.625751 18.6901 4.37996 0.306114 -3.05933 -4.05153
lowerback 18.4491 1.15027 -0.643776
upperback 8.18749 1.40128 0.815165
thorax -1.58526 0.657587 0.953894
lowerneck 2.95984 -2.6028 1.77283
upperneck 7.79606 -3.62247 3.01886
head 1.95978 -1.69257 0.617273
rclavicle -6.36111e-015 1.07344e-014
rhumerus 8.88872 26.388 -38.3931
rradius 134.859
rwrist -35.2643
rhand -8.52348 -45.8846
rfingers 7.12502
rthumb 17.4051 -75.1253
lclavicle -6.36111e-015 1.07344e-014
lhumerus -42.4195 -6.32378 84.9701
lradius 59.3577
lwrist 6.59875
lhand -12.372 -27.9618
lfingers 7.12502
lthumb 13.6985 1.56731
rfemur 0 0 0
rtibia 0
rfoot 0 0
rtoes 0
lfemur -11.1185 -0.142537 -9.64132
ltibia 27.0683
lfoot -18.7302 9.52874
ltoes -55.4733
175
root -0.626273 18.6894 4.37119 0.240844 -3.00064 -4.05418
lowerback 18.5113 1.1526 -0.529784
upperback 8.14484 1.42284 0.7979
thorax -1.66037 0.671732 0.865458
lowerneck 2.64781 -2.63558 1.89586
upperneck 7.63856 -3.66679 2.9639
head 1.95942 -1.71246 0.575626
rclavicle -1.43125e-014 7.95139e-016
rhumerus 9.05006 25.8087 -38.27
rradius 134.971
rwrist -34.8497
rhand -8.50406 -45.7003
rfingers 7.12502
rthumb 17.4238 -74.9394
lclavicle -1.43125e-014 7.95139e-016
lhumerus -42.2003 -6.43777 84.9255
lradius 59.2454
lwrist 6.54514
lhand -12.4226 -28.1169
lfingers 7.12502
lthumb 13.6497 1.41557
rfemur 0 0 0
rtibia 0
rfoot 0 0
rtoes 0
lfemur -11.1047 -0.18155 -9.63511
ltibia 27.0827
lfoot -18.6888 9.51741
ltoes -55.5148
176
root -0.626413 18.688 4.36408 0.166603 -2.93293 -4.07012
lowerback 18.5357 1.08693 -0.446785
upperback 8.03286 1.3527 0.812208
thorax -1.78976 0.639427 0.84561
lowerneck 2.66816 -2.61156 1.89808
upperneck 7.37556 -3.61764 2.82404
head 1.86677 -1.69588 0.533391
rclavicle 8.54774e-015 1.43125e-014
rhumerus 9.38411 25.3882 -38.0945
rradius 135.013
rwrist -34.5967
rhand -8.57703 -45.6987
rfingers 7.12502
rthumb 17.3536 -74.944
lclavicle 8.54774e-015 1.43125e-014
lhumerus -42.2027 -6.36628 84.8846
lradius 59.2203
lwrist 6.52979
lhand -12.529 -28.1718
lfingers 7.12502
lthumb 13.5471 1.3675
rfemur 0 0 0
rtibia 0
rfoot 0 0
rtoes 0
lfemur -11.078 -0.204624 -9.61906
ltibia 27.096
lfoot -18.6517 9.50425
ltoes -55.5772
177
root -0.626874 18.6869 4.3569 0.0974062 -2.86352 -4.08495
lowerback 18.5466 0.965785 -0.463543
upperback 7.8916 1.19311 0.801509
thorax -1.94328 0.561161 0.873622
lowerneck 2.81897 -2.55333 2.17926
upperneck 7.03587 -3.50325 2.4823
head 1.71751 -1.64581 0.385059
rclavicle 2.04748e-014 -3.18055e-015
rhumerus 9.86071 25.0846 -38.0176
rradius 135.03
rwrist -34.4877
rhand -8.81334 -45.7295
rfingers 7.12502
rthumb 17.1261 -74.9947
lclavicle 2.04748e-014 -3.18055e-015
lhumerus -42.3158 -6.14401 84.7013
lradius 59.2643
lwrist 6.58333
lhand -12.619 -28.204
lfingers 7.12502
lthumb 13.4605 1.34102
rfemur 0 0 0
rtibia 0
rfoot 0 0
rtoes 0
lfemur -11.047 -0.246142 -9.60389
ltibia 27.103
lfoot -18.6518 9.48236
ltoes -55.5707
178
root -0.627579 18.6861 4.35017 0.0153917 -2.80569 -4.06364
lowerback 18.5776 0.882401 -0.503562
upperback 7.78205 1.07816 0.785368
thorax -2.07438 0.504571 0.900682
lowerneck 2.78062 -2.53176 2.41291
upperneck 6.76003 -3.4531 2.24319
head 1.62624 -1.62421 0.273921
rclavicle 5.36719e-015 -9.54166e-015
rhumerus 10.3055 24.7474 -37.9104
rradius 135.034
rwrist -34.3288
rhand -9.10785 -45.5233
rfingers 7.12502
rthumb 16.8426 -74.8129
lclavicle 5.36719e-015 -9.54166e-015
lhumerus -42.3609 -6.00005 84.5443
lradius 59.3336
lwrist 6.59176
lhand -12.667 -28.2066
lfingers 7.12502
lthumb 13.4142 1.34153
rfemur 0 0 0
rtibia 0
rfoot 0 0
rtoes 0
lfemur -10.9882 -0.305397 -9.62673
ltibia 27.1011
lfoot -18.6773 9.47297
ltoes -55.6178
179
root -0.628853 18.6847 4.34361 -0.0541827 -2.75251 -4.03431
lowerback 18.6422 0.897621 -0.367378
upperback 7.6636 1.12175 0.777583
thorax -2.23251 0.529862 0.804776
lowerneck 2.57126 -2.60082 2.23581
upperneck 6.60858 -3.55547 2.34562
head 1.61911 -1.67873 0.332167
rclavicle 2.38542e-015 -1.59028e-015
rhumerus 10.4037 24.2222 -37.709
rradius 135.062
rwrist -34.0893
rhand -9.22061 -45.199
rfingers 7.12502
rthumb 16.7341 -74.4978
lclavicle 2.38542e-015 -1.59028e-015
lhumerus -42.3221 -6.21974 84.6006
lradius 59.4126
lwrist 6.59465
lhand -12.7583 -28.0611
lfingers 7.12502
lthumb 13.3262 1.49282
rfemur 0 0 0
rtibia 0
rfoot 0 0
rtoes 0
lfemur -10.9432 -0.318385 -9.6511
ltibia 27.0917
lfoot -18.6745 9.43401
ltoes -55.7243
180
root -0.631193 18.6828 4.33741 -0.107596 -2.70604 -4.02228
lowerback 18.7215 0.942311 -0.194056
upperback 7.51489 1.20938 0.737673
thorax -2.42945 0.577773 0.644276
lowerneck 2.37852 -2.69335 2.19357
upperneck 6.48686 -3.68519 2.40494
head 1.61564 -1.74393 0.354633
rclavicle 4.37326e-015 -5.1684e-015
rhumerus 10.3088 23.5817 -37.6163
rradius 135.241
rwrist -34.1667
rhand -9.03448 -45.1971
rfingers 7.12502
rthumb 16.9133 -74.4806
lclavicle 4.37326e-015 -5.1684e-015
lhumerus -42.3213 -6.59688 84.6253
lradius 59.7186
lwrist 6.33467
lhand -12.713 -27.0345
lfingers 7.12502
lthumb 13.3699 2.51649
rfemur 0 0 0
rtibia 0
rfoot 0 0
rtoes 0
lfemur -10.9215 -0.317669 -9.65108
ltibia 27.0858
lfoot -18.6634 9.39234
ltoes -55.8173
181
root -0.631304 18.6809 4.33198 -0.161558 -2.66577 -4.00712
lowerback 18.7537 0.895185 -0.224657
upperback 7.48364 1.14571 0.799369
thorax -2.48037 0.545094 0.739062
lowerneck 1.96946 -2.66898 2.13992
upperneck 6.30798 -3.65466 2.2453
head 1.62604 -1.73293 0.309538
rclavicle 4.57205e-015 -9.54166e-015
rhumerus 10.8032 23.1026 -37.3503
rradius 135.364
rwrist -34.1505
rhand -8.8526 -45.3068
rfingers 7.12502
rthumb 17.0883 -74.5753
lclavicle 4.57205e-015 -9.54166e-015
lhumerus -42.1618 -6.46174 84.6524
lradius 59.5854
lwrist 6.76745
lhand -12.9747 -28.1193
lfingers 7.12502
lthumb 13.1176 1.44814
rfemur 0 0 0
rtibia 0
rfoot 0 0
rtoes 0
lfemur -10.9032 -0.358747 -9.66928
ltibia 27.1
lfoot -18.7035 9.38841
ltoes -55.9271
